PathFileType	3	(X/Y/Z)	D:\minhoCalibration\240510\subject2_KPNP\preferred\preferred18.trc
DataRate	CameraRate	NumFrames	NumMarkers	Units	OrigDataRate	OrigDataStartFrame	OrigNumFrames
200.0	200.0	27	10	mm	200.0	347	174	
Frame#	Time	Left_Ankle_Outer1			Left_Ankle_Inner1			Left_Knee_Outer1			Left_Knee_Inner1			Left_Wrist1			Right_Wrist1			Right_Knee_Inner1			Right_Knee_Outer1			Right_Ankle_Inner1			Right_Ankle_Outer1			
		X1	Y1	Z1	X2	Y2	Z2	X3	Y3	Z3	X4	Y4	Z4	X5	Y5	Z5	X6	Y6	Z6	X7	Y7	Z7	X8	Y8	Z8	X9	Y9	Z9	X10	Y10	Z10	
347	1.725	-640.13525	134.36708	-674.16302	-642.8042	137.18932	-618.09155	-464.07336	545.67841	-702.34912	-480.75137	527.72742	-608.02844	-588.01361	964.54803	-792.42133	-618.77527	1182.2656	-523.04401	-416.6861	955.0296	-171.25439	-438.27139	1043.7042	-162.05435	-367.69711	849.19257	213.57802	-390.64096	942.94122	246.30011
348	1.73	-639.98065	133.95158	-674.88434	-643.17944	136.67555	-618.51941	-463.42789	544.84839	-701.25732	-480.88858	526.80835	-606.8764	-585.29504	965.50073	-793.1156	-621.47125	1180.514	-521.98718	-420.4455	950.5437	-170.8289	-442.18234	1039.314	-160.82895	-373.39569	836.98212	211.74353	-397.16763	931.05688	246.88123
349	1.735	-639.78729	133.17067	-675.01599	-643.27789	135.66534	-620.61816	-464.06302	543.12585	-699.3208	-481.44943	525.81494	-605.74506	-582.73566	966.21582	-793.77057	-623.99615	1179.1864	-521.15997	-423.48483	946.01245	-171.19647	-445.81601	1034.5289	-159.98477	-379.07709	827.93665	210.5536	-404.37057	919.63367	246.75145
350	1.74	-639.70325	132.71497	-675.54962	-643.56958	136.40562	-618.09412	-463.8483	542.00677	-697.97369	-482.36749	524.7616	-604.49615	-580.34424	966.59174	-794.03522	-626.43982	1178.5171	-520.86169	-425.966	941.17712	-172.11819	-449.00534	1029.5302	-159.49664	-383.81924	820.83136	208.55626	-412.51462	908.43158	245.88354
351	1.745	-639.83844	132.52251	-676.52325	-644.14294	135.66235	-618.7746	-463.63934	540.94745	-696.53467	-483.57828	523.73608	-603.20691	-578.26318	966.6391	-794.08258	-629.03265	1178.3687	-521.0332	-428.52438	936.30847	-173.28148	-451.85938	1024.3835	-159.32857	-394.29831	804.4458	208.1003	-420.64709	896.68158	245.23489
352	1.75	-639.92401	131.88181	-676.94708	-644.45917	134.87396	-619.28717	-463.36737	540.07697	-695.10693	-484.88449	522.99756	-602.15045	-576.33923	966.34583	-793.7688	-631.47986	1178.3069	-521.12695	-430.58173	930.93127	-174.63908	-454.46533	1019.2823	-159.49463	-402.85193	791.51276	205.48195	-429.95602	884.40479	244.08972
353	1.755	-640.04175	130.79065	-676.82751	-644.68317	133.68083	-621.0329	-462.95267	539.28619	-693.65698	-486.63687	522.20258	-601.00842	-574.60339	965.80078	-793.15759	-633.52875	1177.9856	-521.44318	-432.25214	925.72382	-176.03445	-457.03918	1014.2006	-159.75339	-414.42664	781.83606	208.47003	-440.38397	871.35962	242.57764
354	1.76	-640.34589	130.03394	-677.07666	-645.6004	133.18015	-620.05597	-462.73364	538.59888	-692.14496	-488.651	521.61218	-599.9613	-572.84875	965.11963	-792.43658	-635.53528	1177.3966	-521.42975	-435.50839	920.85455	-175.56088	-459.70572	1009.0701	-159.94545	-420.85672	766.40332	199.14178	-451.27618	857.07837	240.47244
355	1.765	-640.71552	129.15288	-677.32227	-646.49744	131.09999	-622.40717	-462.4248	537.98486	-690.75708	-490.73792	521.10748	-599.11316	-571.21417	964.3136	-791.63367	-637.29388	1176.3894	-521.49768	-436.16315	916.29089	-176.46059	-462.37625	1003.9131	-160.11887	-430.5264	755.40045	201.5051	-462.7399	841.9679	238.10445
356	1.77	-641.24683	128.63551	-677.99084	-647.08044	129.53973	-624.14404	-462.30322	537.51367	-689.44562	-492.73343	520.77533	-598.45911	-569.61865	963.50867	-790.90039	-639.16168	1175.1646	-521.31293	-429.16983	910.99115	-181.25432	-465.17761	998.7663	-160.23071	-438.57138	741.63513	196.17371	-474.48666	826.33795	235.20761
357	1.775	-641.75647	127.54975	-678.16583	-647.62946	129.21906	-623.39587	-462.42419	536.93365	-688.2262	-494.80811	519.98938	-597.98572	-568.03992	962.72101	-790.23029	-640.89374	1173.5023	-521.24738	-437.49554	907.39032	-176.18474	-468.08072	993.70306	-160.26044	-446.4957	728.12256	190.98225	-486.05447	810.49829	231.4622
358	1.78	-642.34631	126.48138	-678.35266	-649.54254	126.63682	-625.48792	-462.81577	536.2926	-687.22369	-496.48337	519.92169	-597.39496	-566.50073	962.01221	-789.64679	-642.63354	1171.4507	-521.08264	-438.10336	904.63885	-177.03508	-471.19696	988.81171	-159.88043	-449.87292	716.56458	179.59851	-497.85657	794.87524	227.27626
359	1.785	-642.96594	125.28479	-678.5788	-649.52686	126.8335	-623.91571	-463.62482	535.49902	-686.50775	-498.14276	519.40857	-597.16742	-564.86035	961.35236	-789.21112	-644.58875	1169.0742	-521.11316	-437.23746	901.14178	-177.42004	-474.61038	983.85938	-159.05724	-459.7829	702.28345	174.49731	-509.34683	779.14862	222.26056
360	1.79	-643.5567	124.08034	-678.81085	-651.46417	124.09003	-626.46198	-464.58694	534.65558	-686.1424	-499.90817	518.70172	-597.04211	-563.15228	960.90521	-789.0791	-646.37939	1166.7185	-520.69226	-438.9158	897.84912	-177.66589	-478.4765	978.5979	-158.19101	-468.61838	688.68909	167.96956	-520.58795	763.45978	216.71736
361	1.795	-644.2218	122.75574	-679.0249	-651.42053	124.30101	-624.44556	-465.99619	533.65424	-686.02209	-501.42883	517.75177	-597.12091	-561.37463	960.51947	-789.06952	-648.30347	1164.3726	-520.27136	-440.33963	893.8739	-177.94794	-482.70499	973.09113	-157.44626	-479.95541	674.61743	163.92032	-532.22363	747.98456	210.82513
362	1.8	-644.82184	120.86628	-678.75781	-652.62451	123.47703	-623.13873	-467.41379	532.54034	-686.1709	-502.62946	516.72101	-597.21954	-559.65424	960.31329	-789.1759	-650.42987	1161.8832	-519.83221	-442.22266	889.72327	-178.04175	-487.12363	967.36023	-156.77959	-491.58078	660.17493	159.22818	-543.7959	732.44214	204.32939
363	1.805	-645.51929	119.52321	-679.0387	-653.55298	121.85151	-624.12469	-468.92444	531.30817	-686.45093	-504.17258	515.5166	-597.42883	-557.92908	960.104	-789.1225	-652.27887	1159.2056	-519.75067	-444.2695	885.21313	-178.10403	-491.67075	961.40814	-156.30305	-502.61475	645.74005	152.64232	-555.87274	717.297	197.57657
364	1.81	-646.26447	118.60925	-679.86395	-655.26703	118.56822	-627.8172	-470.48096	530.01367	-686.84814	-505.65726	514.24219	-597.73657	-555.95752	960.12823	-789.46844	-654.38458	1156.5753	-519.62427	-446.55579	880.43402	-178.39154	-496.26917	955.22241	-155.98296	-512.6991	631.54565	144.65514	-567.48438	701.6792	189.85381
365	1.815	-646.87628	117.37908	-680.21173	-655.7135	118.78349	-625.42181	-471.80405	528.51996	-687.34692	-507.19052	512.88605	-597.98993	-554.07025	960.14954	-789.57233	-656.60321	1153.9503	-519.51923	-449.2587	875.20374	-178.71747	-500.86789	948.77423	-155.85016	-522.89386	617.2431	136.21111	-579.1684	686.06738	182.23648
366	1.82	-647.45166	116.09707	-680.51959	-656.45502	117.61629	-625.62958	-473.03412	527.12994	-687.80072	-508.69626	511.604	-598.51166	-552.28992	960.10516	-789.58221	-658.99744	1151.4446	-519.35181	-452.25555	869.68756	-179.26808	-505.629	942.08038	-155.81757	-532.87811	602.92194	127.29457	-591.05176	670.43811	173.58914
367	1.825	-647.99347	114.9321	-680.74323	-656.66931	116.49043	-626.62378	-473.91339	525.74841	-688.30792	-510.08368	510.33939	-598.93994	-550.41248	960.08716	-789.50128	-661.41498	1148.9886	-519.39539	-455.58383	863.89978	-180.03722	-510.43375	935.16016	-156.05013	-543.96613	588.66333	119.18199	-602.8454	654.66663	164.28809
368	1.83	-648.4845	113.84915	-681.05328	-657.9715	114.36059	-628.4848	-474.71494	524.45227	-688.78217	-511.36591	509.11932	-599.49634	-548.66486	960.04944	-789.37469	-663.91626	1146.7301	-519.40503	-459.12256	857.92883	-181.03836	-515.2948	928.03925	-156.53168	-552.73895	574.54236	108.02032	-614.58765	639.12994	154.55814
369	1.835	-648.97162	112.90081	-681.26318	-658.24426	115.27368	-624.97607	-475.38712	523.14795	-689.33551	-512.62592	508.01855	-600.16266	-546.88367	960.11023	-789.24133	-666.5993	1144.5325	-519.51807	-462.7673	851.84961	-182.37402	-520.19977	920.82715	-157.62469	-562.52338	560.56421	97.580765	-626.11267	623.73224	144.43178
370	1.84	-649.4325	111.90891	-681.45111	-659.26434	112.25999	-629.06421	-475.84915	521.98523	-689.95605	-513.64825	507.01172	-600.79279	-545.1936	960.37762	-789.19843	-669.34167	1142.3677	-519.69977	-466.67316	845.67822	-183.88016	-525.03546	913.40259	-158.68274	-570.02087	546.58136	84.340797	-637.50775	608.43414	133.48877
371	1.845	-649.7334	110.5574	-681.07867	-658.81592	112.88687	-627.19897	-476.33948	520.9516	-690.62933	-514.31183	506.18506	-601.59399	-543.58545	960.53357	-789.04724	-672.15961	1140.1042	-519.96442	-470.67618	839.38416	-185.45859	-530.37781	905.94641	-159.34377	-582.13831	532.91473	75.679504	-648.79974	593.42755	122.28348
372	1.85	-650.17834	109.70117	-681.22443	-659.79688	112.05664	-626.74609	-476.8103	520.08929	-691.40295	-515.41425	505.48123	-602.41431	-541.88458	960.86664	-788.8808	-675.04401	1137.797	-520.26025	-474.90918	832.91498	-187.0295	-535.65503	898.45221	-160.29982	-592.84583	519.12189	64.942139	-659.86908	578.6723	110.27058
373	1.855	-650.66376	109.30575	-681.93994	-659.90088	112.26819	-625.16797	-477.56311	519.17975	-692.24866	-516.50586	504.86838	-603.86871	-540.28748	961.28467	-788.82147	-678.01178	1135.375	-520.61212	-479.20465	826.12903	-188.58833	-540.71277	890.75964	-161.56694	-601.49329	506.01746	51.969437	-670.81927	563.75714	97.831619
